<?xml version="1.0"?>
<svg xmlns="http://www.w3.org/2000/svg" height="512px" viewBox="-56 0 448 448" width="512px"><path d="m215.859375 368h67c10.0625-22.710938 53.167969-124.382812 53.167969-200 0-92.785156-75.214844-168-168-168s-168.0000002 75.214844-168.0000002 168c-1.1171878 57.074219 31.6601562 109.394531 83.5039062 133.289062 22.898438 10.992188 47.777344 17.25 73.152344 18.398438 3.761718.207031 7.542968.3125 11.34375.3125 8.019531.003906 16.035156-.457031 24-1.382812v-86.617188c0-30.929688 25.070312-56 56-56 30.929687 0 56 25.070312 56 56v48c0 4.417969-3.582032 8-8 8-4.417969 0-8-3.582031-8-8v-48c0-22.089844-17.910156-40-40-40s-40 17.910156-40 40v93.601562c0 3.945313-2.882813 7.300782-6.785156 7.902344-10.992188 1.671875-22.09375 2.507813-33.214844 2.496094-3.847656 0-7.664063-.113281-11.472656-.304688-1.246094-.0625-2.472657-.175781-3.710938-.261718-2.566406-.167969-5.128906-.363282-7.671875-.617188-1.433594-.144531-2.847656-.328125-4.273437-.503906-2.34375-.28125-4.6875-.59375-7.007813-.953125-1.445313-.222656-2.890625-.460937-4.335937-.710937-2.304688-.410157-4.59375-.855469-6.871094-1.328126-1.375-.289062-2.753906-.566406-4.113282-.878906-2.398437-.5625-4.800781-1.175781-7.199218-1.824218-1.160156-.3125-2.335938-.59375-3.488282-.929688-3.152343-.902344-6.261718-1.878906-9.328124-2.933594-.351563-.121094-.710938-.21875-1.0625-.339844-3.199219-1.117187-6.351563-2.300781-9.457032-3.574218v47.160156h31.578125c4.417969 0 8 3.582031 8 8s-3.582031 8-8 8h-31.585937v64h192v-64h-64.167969c-4.417969 0-8-3.582031-8-8s3.582031-8 8-8zm-30.863281 45.65625c2.078125 2.007812 2.914062 4.984375 2.179687 7.78125-.730469 2.796875-2.914062 4.980469-5.710937 5.710938-2.796875.734374-5.773438-.101563-7.78125-2.179688l-5.65625-5.65625-5.65625 5.65625c-2.007813 2.078125-4.984375 2.914062-7.78125 2.179688-2.796875-.730469-4.980469-2.914063-5.710938-5.710938-.734375-2.796875.101563-5.773438 2.179688-7.78125l5.65625-5.65625-5.65625-5.65625c-2.078125-2.007812-2.914063-4.984375-2.179688-7.78125.730469-2.796875 2.914063-4.980469 5.710938-5.710938 2.796875-.734374 5.773437.101563 7.78125 2.179688l5.65625 5.65625 5.65625-5.65625c3.140625-3.03125 8.128906-2.988281 11.214844.097656 3.085937 3.085938 3.128906 8.074219.097656 11.214844l-5.65625 5.65625zm0-48c2.078125 2.007812 2.914062 4.984375 2.179687 7.78125-.730469 2.796875-2.914062 4.980469-5.710937 5.710938-2.796875.734374-5.773438-.101563-7.78125-2.179688l-5.65625-5.65625-5.65625 5.65625c-2.007813 2.078125-4.984375 2.914062-7.78125 2.179688-2.796875-.730469-4.980469-2.914063-5.710938-5.710938-.734375-2.796875.101563-5.773438 2.179688-7.78125l5.65625-5.65625-5.65625-5.65625c-2.078125-2.007812-2.914063-4.984375-2.179688-7.78125.730469-2.796875 2.914063-4.980469 5.710938-5.710938 2.796875-.734374 5.773437.101563 7.78125 2.179688l5.65625 5.65625 5.65625-5.65625c3.140625-3.03125 8.128906-2.988281 11.214844.097656 3.085937 3.085938 3.128906 8.074219.097656 11.214844l-5.65625 5.65625zm0 0" fill="#242424"/></svg>
