<?xml version="1.0"?>
<svg xmlns="http://www.w3.org/2000/svg" xmlns:xlink="http://www.w3.org/1999/xlink" version="1.1" viewBox="0 0 137.144 137.144" enable-background="new 0 0 137.144 137.144" width="512px" height="512px" class=""><g><g>
    <g>
      <path d="M89.144,48.001L71.787,20.572L54.858,48.001h13.714v41.144H54.858l16.714,27.429l17.572-27.429H75.43V48.001H89.144z     M109.715,0H27.429C12.28,0,0,12.281,0,27.429v82.286c0,15.149,12.28,27.429,27.429,27.429h82.286    c15.148,0,27.429-12.28,27.429-27.429V27.429C137.144,12.281,124.864,0,109.715,0z M123.43,102.858    c0,11.361-9.21,20.572-20.572,20.572H34.286c-11.361,0-20.571-9.21-20.571-20.572V34.286c0-11.361,9.21-20.572,20.571-20.572    h68.572c11.362,0,20.572,9.21,20.572,20.572V102.858z" data-original="#000000" class="active-path" data-old_color="#000000" fill="#F14042"/>
    </g>
  </g></g> </svg>
