<?xml version="1.0"?>
<svg xmlns="http://www.w3.org/2000/svg" viewBox="0 0 512 512" width="512px" height="512px"><path d="m181 308.507812 90 67.492188v-240l-90 67.492188zm0 0" fill="#F14042"/><path d="m256 0c-140.609375 0-256 115.390625-256 256s115.390625 256 256 256 256-115.390625 256-256-115.390625-256-256-256zm45 436-139.988281-105h-70.011719v-150h70.011719l139.988281-105zm121.816406-126.972656-31.816406-31.816406-31.816406 31.816406-21.210938-21.210938 31.816406-31.816406-31.816406-31.816406 21.210938-21.210938 31.816406 31.816406 31.816406-31.816406 21.210938 21.210938-31.816406 31.816406 31.816406 31.816406zm0 0" fill="#F14042"/><path d="m121 211h30v90h-30zm0 0" fill="#F14042"/></svg>
