<?xml version="1.0"?>
<svg xmlns="http://www.w3.org/2000/svg" xmlns:xlink="http://www.w3.org/1999/xlink" version="1.1" viewBox="0 0 137.144 137.144" enable-background="new 0 0 137.144 137.144" width="512px" height="512px" class=""><g><g>
    <g>
      <path d="M64.928,75.535L48.001,89.144v6.857L61.715,85.93v30.643h6.857V85.93l13.714,10.071v-6.857L64.928,75.43V75.535z     M68.572,20.572h-6.857v30.643L48.001,41.144v6.857L65.36,61.716v-0.105l16.927-13.61v-6.857L68.572,51.216V20.572z M109.715,0    H27.429C12.28,0,0,12.281,0,27.429v82.286c0,15.149,12.28,27.429,27.429,27.429h82.286c15.148,0,27.429-12.28,27.429-27.429    V27.429C137.144,12.281,124.864,0,109.715,0z M123.43,102.858c0,11.361-9.21,20.572-20.572,20.572H34.286    c-11.362,0-20.572-9.21-20.572-20.572V34.286c0-11.361,9.21-20.572,20.572-20.572h68.572c11.361,0,20.572,9.21,20.572,20.572    V102.858z" data-original="#000000" class="active-path" data-old_color="#000000" fill="#F14042"/>
    </g>
  </g></g> </svg>
