<?xml version="1.0" encoding="UTF-8"?>
<svg width="512px" height="512px" viewBox="0 0 512 512" version="1.1" xmlns="http://www.w3.org/2000/svg" xmlns:xlink="http://www.w3.org/1999/xlink">
    <!-- Generator: Sketch 63.1 (92452) - https://sketch.com -->
    <title>volume</title>
    <desc>Created with Sketch.</desc>
    <g id="Website" stroke="none" stroke-width="1" fill="none" fill-rule="evenodd">
        <g id="Home" transform="translate(-696.000000, -1278.000000)">
            <g id="volume" transform="translate(696.000000, 1278.000000)">
                <circle id="Oval" fill="#F2F3F4" cx="254" cy="256" r="209"></circle>
                <polygon id="Path" fill="#F14042" fill-rule="nonzero" points="121 211 151 211 151 301 121 301"></polygon>
                <path d="M256,0 C115.390625,0 0,115.390625 0,256 C0,396.609375 115.390625,512 256,512 C396.609375,512 512,396.609375 512,256 C512,115.390625 396.609375,0 256,0 Z M301,436 L161.011719,331 L91,331 L91,181 L161.011719,181 L301,76 L301,436 Z M317.816406,287.816406 C326.3125,279.320312 331,268.027344 331,256 C331,243.972656 326.3125,232.679688 317.816406,224.183594 L339.027344,202.972656 C353.191406,217.121094 361,235.960938 361,256 C361,276.039062 353.191406,294.878906 339.027344,309.027344 L317.816406,287.816406 Z M381.464844,351.464844 L360.253906,330.253906 C401.195312,289.3125 401.195312,222.691406 360.253906,181.746094 L381.464844,160.535156 C434.109375,213.167969 434.109375,298.832031 381.464844,351.464844 Z" id="Shape" fill="#F14042" fill-rule="nonzero"></path>
                <polygon id="Path" fill="#F14042" fill-rule="nonzero" points="181 308.507812 271 376 271 136 181 203.492188"></polygon>
            </g>
        </g>
    </g>
</svg>