<?xml version="1.0"?>
<svg xmlns="http://www.w3.org/2000/svg" viewBox="0 0 512 512" width="512px" height="512px"><path d="m121 211h30v90h-30zm0 0" fill="#F14042"/><path d="m256 0c-140.609375 0-256 115.390625-256 256s115.390625 256 256 256 256-115.390625 256-256-115.390625-256-256-256zm45 436-139.988281-105h-70.011719v-150h70.011719l139.988281-105zm16.816406-148.183594c8.496094-8.496094 13.183594-19.789062 13.183594-31.816406s-4.6875-23.320312-13.183594-31.816406l21.210938-21.210938c14.164062 14.148438 21.972656 32.988282 21.972656 53.027344s-7.808594 38.878906-21.972656 53.027344zm63.648438 63.648438-21.210938-21.210938c40.941406-40.941406 40.941406-107.5625 0-148.507812l21.210938-21.210938c52.644531 52.632813 52.644531 138.296875 0 190.929688zm0 0" fill="#F14042"/><path d="m181 308.507812 90 67.492188v-240l-90 67.492188zm0 0" fill="#F14042"/></svg>
